@startuml
title Package di Analisi: Fornitori

' Boundary e Control
interface InterfacciaNegoziante <<boundary>>
class GestoreFornitori <<control>>
class CatalogoFornitori <<repository>>
class Articolo <<entity>>

class Articolo <<entity>> {
    - id : Long
    - nome : String
    - descrizione : String
    - prezzo : Double
    - quantita : int
    - disponibile : Boolean
}
class Fornitore <<entity>> {
    - id : Long
    - nome : String
    - contatti : String
    - tipologiaMerce : String
    - servizioDomicilio : Boolean
}

InterfacciaNegoziante ..> GestoreFornitori
GestoreFornitori ..> CatalogoFornitori
CatalogoFornitori --> Fornitore
Fornitore "1" --> "0..*" Articolo 
@enduml